<?xml version="1.0" standalone="no"?><!DOCTYPE svg PUBLIC "-//W3C//DTD SVG 1.1//EN" "http://www.w3.org/Graphics/SVG/1.1/DTD/svg11.dtd"><svg t="1720709732398" class="icon" viewBox="0 0 1024 1024" version="1.1" xmlns="http://www.w3.org/2000/svg" p-id="2286" xmlns:xlink="http://www.w3.org/1999/xlink" width="48" height="48"><path d="M209.92 988.16c-15.36 0-30.72-15.36-30.72-30.72s15.36-30.72 30.72-30.72h471.04c153.6 0 281.6-128 281.6-281.6s-128-281.6-281.6-281.6H102.4l220.16 220.16c5.12 5.12 10.24 10.24 10.24 20.48 0 5.12-5.12 15.36-10.24 20.48-5.12 5.12-10.24 10.24-20.48 10.24-5.12 0-15.36-5.12-20.48-10.24L10.24 353.28c-5.12-5.12-10.24-10.24-10.24-20.48 0-5.12 5.12-15.36 10.24-20.48L281.6 40.96c5.12-5.12 10.24-10.24 20.48-10.24 5.12 0 15.36 5.12 20.48 10.24 0 10.24 5.12 15.36 5.12 25.6 0 5.12-5.12 15.36-10.24 20.48L97.28 307.2h583.68a343.04 343.04 0 0 1 0 686.08H209.92z" fill="#606266" p-id="2287"></path></svg>