<?xml version="1.0" standalone="no"?><!DOCTYPE svg PUBLIC "-//W3C//DTD SVG 1.1//EN" "http://www.w3.org/Graphics/SVG/1.1/DTD/svg11.dtd"><svg t="1719331991276" class="icon" viewBox="0 0 1024 1024" version="1.1" xmlns="http://www.w3.org/2000/svg" p-id="12317" xmlns:xlink="http://www.w3.org/1999/xlink" width="48" height="48"><path d="M917.333333 256a21.333333 21.333333 0 0 0-21.333333 21.333333v224a10.666667 10.666667 0 0 1-10.666667 10.666667H158.166667l134.253333-134.246667a21.333333 21.333333 0 0 0-30.173333-30.173333l-170.666667 170.666667a21.333333 21.333333 0 0 0 0 30.173333l170.666667 170.666667a21.333333 21.333333 0 1 0 30.173333-30.173334L158.166667 554.666667H885.333333a53.393333 53.393333 0 0 0 53.333334-53.333334V277.333333a21.333333 21.333333 0 0 0-21.333334-21.333333z" fill="#5C5C66" p-id="12318"></path></svg>