<?xml version="1.0" standalone="no"?><!DOCTYPE svg PUBLIC "-//W3C//DTD SVG 1.1//EN"
        "http://www.w3.org/Graphics/SVG/1.1/DTD/svg11.dtd">
<svg t="1719579858846" class="icon" viewBox="0 0 1024 1024" version="1.1" xmlns="http://www.w3.org/2000/svg" p-id="3181"
     xmlns:xlink="http://www.w3.org/1999/xlink" width="48" height="48">
    <path d="M662.674286 973.092571h-321.828572A35.693714 35.693714 0 0 1 304.859429 936.228571V539.794286a6.729143 6.729143 0 0 0-6.729143-6.729143H78.409143a35.401143 35.401143 0 0 1-33.060572-21.942857 35.986286 35.986286 0 0 1 7.606858-39.204572L476.306286 47.104a36.864 36.864 0 0 1 50.614857 0l423.058286 424.813714a35.693714 35.693714 0 0 1-25.161143 61.147429H705.097143a6.729143 6.729143 0 0 0-6.729143 6.729143V936.228571a35.693714 35.693714 0 0 1-35.693714 36.864z m-161.206857-906.971428a5.851429 5.851429 0 0 0-4.388572 2.048L73.728 492.690286a7.021714 7.021714 0 0 0 0 7.021714 6.436571 6.436571 0 0 0 6.144 4.096h219.721143a35.986286 35.986286 0 0 1 35.986286 35.986286V936.228571a6.436571 6.436571 0 0 0 6.436571 6.436572h321.828571a6.436571 6.436571 0 0 0 6.436572-6.436572V539.794286a35.986286 35.986286 0 0 1 35.986286-35.986286h219.721142a5.558857 5.558857 0 0 0 5.851429-4.096 6.144 6.144 0 0 0 0-7.021714L506.148571 67.876571a6.144 6.144 0 0 0-4.681142-2.048z"
          fill="#666666" p-id="3182"></path>
</svg>